<mxfile host="app.diagrams.net" modified="2024-02-16T23:09:09.223Z" agent="Mozilla/5.0 (Windows NT 10.0; Win64; x64) AppleWebKit/537.36 (KHTML, like Gecko) Chrome/121.0.0.0 Safari/537.36" etag="fTLfn78O3uPLzPuuYnak" version="23.1.5" type="github">
  <diagram name="Página-1" id="th9NVCXLfCJGZFp-GJsM">
    <mxGraphModel dx="880" dy="468" grid="1" gridSize="10" guides="1" tooltips="1" connect="1" arrows="1" fold="1" page="1" pageScale="1" pageWidth="827" pageHeight="1169" math="0" shadow="0">
      <root>
        <mxCell id="0" />
        <mxCell id="1" parent="0" />
        <mxCell id="PB3bku5bBu4MMij3hflq-1" value="Fornecedor" style="swimlane;childLayout=stackLayout;horizontal=1;startSize=50;horizontalStack=0;rounded=1;fontSize=14;fontStyle=0;strokeWidth=2;resizeParent=0;resizeLast=1;shadow=0;dashed=0;align=center;arcSize=4;whiteSpace=wrap;html=1;labelBackgroundColor=none;fillColor=#F2CC8F;strokeColor=#E07A5F;fontColor=#393C56;" vertex="1" parent="1">
          <mxGeometry x="440" y="165" width="166" height="160" as="geometry" />
        </mxCell>
        <mxCell id="PB3bku5bBu4MMij3hflq-2" value="IDFornecedor (PK)&lt;br&gt;Nome&lt;br&gt;Contato&lt;br&gt;Telefone" style="align=left;strokeColor=none;fillColor=none;spacingLeft=4;fontSize=12;verticalAlign=top;resizable=0;rotatable=0;part=1;html=1;labelBackgroundColor=none;fontColor=#393C56;rounded=1;" vertex="1" parent="PB3bku5bBu4MMij3hflq-1">
          <mxGeometry y="50" width="166" height="110" as="geometry" />
        </mxCell>
        <mxCell id="PB3bku5bBu4MMij3hflq-3" value="Produtos" style="swimlane;childLayout=stackLayout;horizontal=1;startSize=50;horizontalStack=0;rounded=1;fontSize=14;fontStyle=0;strokeWidth=2;resizeParent=0;resizeLast=1;shadow=0;dashed=0;align=center;arcSize=4;whiteSpace=wrap;html=1;labelBackgroundColor=none;fillColor=#F2CC8F;strokeColor=#E07A5F;fontColor=#393C56;" vertex="1" parent="1">
          <mxGeometry x="110" y="160" width="185" height="170" as="geometry" />
        </mxCell>
        <mxCell id="PB3bku5bBu4MMij3hflq-4" value="&amp;nbsp;IDProduto (PK)&lt;br&gt;&amp;nbsp;Nome&lt;br&gt;&amp;nbsp;Descrição&lt;br&gt;&amp;nbsp;Preço&lt;br&gt;Cadastro&lt;br&gt;UltimaAtualização" style="align=left;strokeColor=none;fillColor=none;spacingLeft=4;fontSize=12;verticalAlign=top;resizable=0;rotatable=0;part=1;html=1;labelBackgroundColor=none;fontColor=#393C56;rounded=1;" vertex="1" parent="PB3bku5bBu4MMij3hflq-3">
          <mxGeometry y="50" width="185" height="120" as="geometry" />
        </mxCell>
        <mxCell id="PB3bku5bBu4MMij3hflq-6" value="Entrada de Estoque" style="swimlane;childLayout=stackLayout;horizontal=1;startSize=50;horizontalStack=0;rounded=1;fontSize=14;fontStyle=0;strokeWidth=2;resizeParent=0;resizeLast=1;shadow=0;dashed=0;align=center;arcSize=4;whiteSpace=wrap;html=1;labelBackgroundColor=none;fillColor=#F2CC8F;strokeColor=#E07A5F;fontColor=#393C56;" vertex="1" parent="1">
          <mxGeometry x="110" y="390" width="180" height="160" as="geometry" />
        </mxCell>
        <mxCell id="PB3bku5bBu4MMij3hflq-7" value="IDEntrada (PK)&lt;br&gt;IDProduto (FK)&lt;br&gt;Data&lt;br&gt;Quantidade" style="align=left;strokeColor=none;fillColor=none;spacingLeft=4;fontSize=12;verticalAlign=top;resizable=0;rotatable=0;part=1;html=1;labelBackgroundColor=none;fontColor=#393C56;rounded=1;" vertex="1" parent="PB3bku5bBu4MMij3hflq-6">
          <mxGeometry y="50" width="180" height="110" as="geometry" />
        </mxCell>
        <mxCell id="PB3bku5bBu4MMij3hflq-8" value="Saída de Estoque" style="swimlane;childLayout=stackLayout;horizontal=1;startSize=50;horizontalStack=0;rounded=1;fontSize=14;fontStyle=0;strokeWidth=2;resizeParent=0;resizeLast=1;shadow=0;dashed=0;align=center;arcSize=4;whiteSpace=wrap;html=1;labelBackgroundColor=none;fillColor=#F2CC8F;strokeColor=#E07A5F;fontColor=#393C56;" vertex="1" parent="1">
          <mxGeometry x="430" y="380" width="176" height="160" as="geometry" />
        </mxCell>
        <mxCell id="PB3bku5bBu4MMij3hflq-9" value="IDSaida (PK)&lt;br&gt;IDProduto (FK)&lt;br&gt;Data&lt;br&gt;Quantidade" style="align=left;strokeColor=none;fillColor=none;spacingLeft=4;fontSize=12;verticalAlign=top;resizable=0;rotatable=0;part=1;html=1;labelBackgroundColor=none;fontColor=#393C56;rounded=1;" vertex="1" parent="PB3bku5bBu4MMij3hflq-8">
          <mxGeometry y="50" width="176" height="110" as="geometry" />
        </mxCell>
        <mxCell id="PB3bku5bBu4MMij3hflq-10" value="" style="edgeStyle=entityRelationEdgeStyle;fontSize=12;html=1;endArrow=ERoneToMany;rounded=1;entryX=-0.006;entryY=0.1;entryDx=0;entryDy=0;entryPerimeter=0;labelBackgroundColor=none;strokeColor=#E07A5F;fontColor=default;exitX=1;exitY=0.118;exitDx=0;exitDy=0;exitPerimeter=0;" edge="1" parent="1">
          <mxGeometry width="100" height="100" relative="1" as="geometry">
            <mxPoint x="294" y="239.99999999999994" as="sourcePoint" />
            <mxPoint x="438.0039999999999" y="240.94" as="targetPoint" />
            <Array as="points">
              <mxPoint x="269" y="339.94" />
              <mxPoint x="259" y="359.94" />
            </Array>
          </mxGeometry>
        </mxCell>
        <mxCell id="PB3bku5bBu4MMij3hflq-15" value="" style="edgeStyle=entityRelationEdgeStyle;fontSize=12;html=1;endArrow=ERone;endFill=1;rounded=1;labelBackgroundColor=none;strokeColor=#E07A5F;fontColor=default;exitX=1;exitY=0.5;exitDx=0;exitDy=0;" edge="1" parent="1" source="PB3bku5bBu4MMij3hflq-9" target="PB3bku5bBu4MMij3hflq-1">
          <mxGeometry width="100" height="100" relative="1" as="geometry">
            <mxPoint x="610.0640000000001" y="451.01" as="sourcePoint" />
            <mxPoint x="650" y="210" as="targetPoint" />
            <Array as="points">
              <mxPoint x="620" y="490" />
              <mxPoint x="686" y="426" />
              <mxPoint x="737" y="188" />
              <mxPoint x="606" y="280" />
              <mxPoint x="747" y="228" />
            </Array>
          </mxGeometry>
        </mxCell>
        <mxCell id="PB3bku5bBu4MMij3hflq-16" value="" style="edgeStyle=entityRelationEdgeStyle;fontSize=12;html=1;endArrow=ERoneToMany;rounded=0;strokeColor=#E07A5F;fontColor=#393C56;fillColor=#F2CC8F;" edge="1" parent="1" source="PB3bku5bBu4MMij3hflq-7">
          <mxGeometry width="100" height="100" relative="1" as="geometry">
            <mxPoint x="10" y="300" as="sourcePoint" />
            <mxPoint x="110" y="200" as="targetPoint" />
          </mxGeometry>
        </mxCell>
      </root>
    </mxGraphModel>
  </diagram>
</mxfile>
